<svg xmlns="http://www.w3.org/2000/svg" viewBox="0 0 566 300.56"><defs><style>.cls-1{fill:#fcfcfc;}.cls-2{fill:#e0e413;}.cls-3{fill:none;stroke:#e0e413;stroke-linecap:round;stroke-linejoin:round;stroke-width:4px;}.cls-4{fill:#fff;}</style></defs><title>logo_1</title><g id="Layer_2" data-name="Layer 2"><g id="Layer_1-2" data-name="Layer 1"><path class="cls-1" d="M77.28,148.29q0,8.64-12.88,22.5Q51,185.16,40.93,185.16q-7.76,0-16.76-4.41Q16.49,177,0,165.58l3.71-5.47q13.48,9,23.28,9a24.7,24.7,0,0,0,12.18-3.48q6.16-3.49,16.58-12.75,14.64-13,14.65-20.12,0-3.52-2.83-9.35a37,37,0,0,0-7.76-10.76l4.94-23.82q12.52,12.8,12.53,32.47Z"/><path class="cls-1" d="M119.62,144.5l-6.17,1.76a19.13,19.13,0,0,1-9.13-2.12A15,15,0,0,1,98,137.79q-5-9.43-5.12-31.49l-.26-31.23Q92.45,62.82,85,55.13l9.17-21.34H95q9.09,14.2,9.08,33.7V91q0,31.32,8.65,31.32h6.88Z"/><path class="cls-1" d="M168.67,144.5l-6.18,1.76h-49v-24h46.4q-1.5-8.38-9.71-18.09l6.71-20H158a40.84,40.84,0,0,1,8.12,14.47q2.56,8.64,2.56,24.61ZM148,167.35l-9.62,17.11-18.35-10.15L129.41,157Z"/><path class="cls-1" d="M257.77,146.88l-10.85-2.38L232,146.26H162.49v-24h62.72q-19.58-20.2-35.46-20.2a47.59,47.59,0,0,0-9.7,1.23q9.52-21.7,24.35-21.7,8.28,0,17.2,6.62a108.83,108.83,0,0,1,8.78,7.85q5.24,5.12,12.3,12.88,6.88,7.5,10.32,9.7a13.29,13.29,0,0,0,2.38,1.15c1.06.41,2.22.82,3.49,1.23s2.56.81,3.88,1.19,2.57.69,3.75.93ZM225.92,52.75l-9.61,17.12L198,59.72l9.35-17.29Z"/><path class="cls-1" d="M298.61,17.91a18.63,18.63,0,0,1-2.56,6.44,8.18,8.18,0,0,1-4.41,3.7L266.59,35.9a22,22,0,0,1,2.51-5.47,16.52,16.52,0,0,1,5.34-4.85q-4.59-3.16-4.59-6a11.2,11.2,0,0,1,.71-3.61,16.7,16.7,0,0,1,2.38-4.33,36.51,36.51,0,0,1,8.38-8.55Q285.73,0,289.44,0a5.33,5.33,0,0,1,3.79,1.32,5,5,0,0,1,1.41,3.8,12.43,12.43,0,0,1-.75,4.27A33,33,0,0,1,291.73,14a26.8,26.8,0,0,0-4.54-2.12,10.9,10.9,0,0,0-3.14-.71A8.22,8.22,0,0,0,277.7,14c0,.76,1.44,1.94,4.33,3.52a24.35,24.35,0,0,0,4.05,1.81,9.43,9.43,0,0,0,2.74.58,17.76,17.76,0,0,0,3.26-.49C293.61,19.13,295.79,18.61,298.61,17.91Zm-3.44,102.68q0,13.41-9,31.76l-5.29-2.12A103.09,103.09,0,0,0,283,131.88q0-5.73-.75-14.42T280,97q-1.5-11.3-4.24-25.32c-.76-3.88-1.34-6.92-1.72-9.13a34.22,34.22,0,0,1-.57-4.19q0-5.39,9.61-23.82h1l5.12,29.82q3.09,18.25,4.54,32.46T295.17,120.59Z"/><path class="cls-2" d="M378,233.44q-7.65,4.77-18.35,4.76a31.33,31.33,0,0,1-16.57-4.38A29,29,0,0,1,332,221.42a41.31,41.31,0,0,1-3.91-18.35,41.88,41.88,0,0,1,4.44-19.42,32.43,32.43,0,0,1,12.41-13.37,34.5,34.5,0,0,1,18-4.73,37.67,37.67,0,0,1,15.47,3.26V176A30.86,30.86,0,0,0,362,171.44a25.6,25.6,0,0,0-23.77,15.06,37.3,37.3,0,0,0-3.41,16.19q0,13.41,6.89,21.52T360,232.32a29.78,29.78,0,0,0,18-5.58Z"/><path class="cls-2" d="M422.57,238.2a32.93,32.93,0,0,1-17.29-4.51A29.81,29.81,0,0,1,393.73,221a41.64,41.64,0,0,1-4-18.72,43.69,43.69,0,0,1,4.1-19.51A29.23,29.23,0,0,1,405.57,170a34.81,34.81,0,0,1,17.81-4.45q14.85,0,23.43,9.74T455.39,202a42.8,42.8,0,0,1-4,18.95,29.64,29.64,0,0,1-11.49,12.78A33,33,0,0,1,422.57,238.2Zm.5-66.76q-12.4,0-19.51,8.42t-7.11,22.58q0,13.59,7.08,21.73t19.23,8.15q12.4,0,19.16-8t6.77-22.42q0-14.79-6.64-22.61T423.07,171.44Z"/><path class="cls-2" d="M559.49,236.51V194.92q0-12.58-4-18t-13-5.45a17.1,17.1,0,0,0-10,3.22,22.21,22.21,0,0,0-7.33,8.83,27.73,27.73,0,0,0-2.7,12.19v40.83h-6.45V194.42q0-23-17.47-23-8.4,0-14,7.07t-5.57,18.11v39.89h-6.51V167.24h6.51v11.53h.25q7.2-13.22,21.17-13.22a20.13,20.13,0,0,1,12.84,4.29,21.23,21.23,0,0,1,7.39,11.49,27.14,27.14,0,0,1,9.14-11.55,22.51,22.51,0,0,1,13.35-4.23q22.72,0,22.73,28.12v42.84Z"/><circle class="cls-3" cx="275.01" cy="203" r="28.91" transform="translate(-62.99 253.92) rotate(-45)"/><circle class="cls-3" cx="274.11" cy="202.1" r="15.36" transform="translate(14.44 422.44) rotate(-76.72)"/><path class="cls-4" d="M315.88,230.74h0a7.36,7.36,0,0,0-6.55,4.13v-.73a7.27,7.27,0,0,0-4.28-6.63,7.66,7.66,0,0,0-10.16,3.71v-.31s-1.76-7.08-5.59-7.21c-4.09-.12-7.06,7.23-7.06,7.23l-.46-30a7.25,7.25,0,0,0-5.81-7.16,7,7,0,0,0-8.18,7.13l.91,59.35-4.81-16.63a10.14,10.14,0,0,0-9.31-7h0a7.14,7.14,0,0,0-4.73,8.84l8.5,28.73a61.57,61.57,0,0,0,5.54,13l4,7A12.62,12.62,0,0,0,279,300.56l27.23-.44a13,13,0,0,0,11.57-7.25h0a60,60,0,0,0,6-27l-.45-28.08A7.26,7.26,0,0,0,315.88,230.74Z"/></g></g></svg>